<svg width="163" height="58.99999999999999" xmlns="http://www.w3.org/2000/svg">

 <g>
  <title>Layer 1</title>
  <path id="svg_1" fill="#F44153" d="m47.491,19.984l0,4.774l-3.164,0l0,-13.759l9.673,0l0,8.985l-6.509,0zm-1.582,10.599l-18.842,0c-0.872,0 -1.582,0.713 -1.582,1.589s0.71,1.589 1.582,1.589l12.408,0c2.617,0 4.746,2.137 4.746,4.765c0,2.628 -2.129,4.765 -4.746,4.765l-15.572,0c-0.872,0 -1.582,0.712 -1.582,1.589c0,0.876 0.71,1.588 1.582,1.588l12.408,0c2.617,0 4.746,2.138 4.746,4.766c0,2.627 -2.129,4.765 -4.746,4.765l-26.788,0l0,-3.177l26.788,0c0.873,0 1.582,-0.713 1.582,-1.588c0,-0.876 -0.709,-1.589 -1.582,-1.589l-12.408,0c-2.616,0 -4.745,-2.138 -4.745,-4.765c0,-2.628 2.129,-4.766 4.745,-4.766l15.572,0a1.588,1.588 0 0 0 0,-3.177l-12.408,0c-2.616,0 -4.745,-2.138 -4.745,-4.765s2.129,-4.766 4.745,-4.766l18.842,0l0,3.177zm-35.377,18.728l-1.009,0.839l-1.009,-0.839a39.152,39.152 0 0 1 -4.157,-4.134c-2.891,-3.35 -4.357,-6.341 -4.357,-8.891c0,-5.272 4.272,-9.562 9.523,-9.562c5.251,0 9.523,4.29 9.522,9.562c0,2.55 -1.465,5.541 -4.356,8.891a39.26,39.26 0 0 1 -4.157,4.134zm-1.009,-15.97a2.943,2.943 0 0 0 -2.934,2.945a2.943,2.943 0 0 0 2.934,2.946a2.942,2.942 0 0 0 2.933,-2.946a2.942,2.942 0 0 0 -2.933,-2.945z" clip-rule="evenodd" fill-rule="evenodd"/>
  <text opacity="0.88" stroke="null" transform="matrix(1.0046077209142439,0,0,1,-3.6049064592271667,0) " font-style="normal" font-weight="bold" xml:space="preserve" text-anchor="start" font-family="'Quicksand'" font-size="22" id="svg_7" y="29.13333" x="64.24235" fill-opacity="null" stroke-opacity="null" stroke-dasharray="null" stroke-width="0" fill="#000000">Group 48</text>
  <text stroke="null" xml:space="preserve" text-anchor="start" font-family="'Quicksand'" font-size="16" id="svg_8" y="51.53334" x="61.64999" opacity="0.9" fill-opacity="null" stroke-opacity="null" stroke-dasharray="null" stroke-width="0" fill="#000000">City portal</text>
 </g>
</svg>